# xmcd
#
# Track frame offsets:
#	150
#	16868
#	32054
#	47333
#	71136
#	87773
#	118946
#	133474
#	157990
#	171001
#
# Disc length: 2637 seconds
#
# Revision: 1
# Processed by: cddbd v1.4PL0 Copyright (c) Steve Scherf et al.
# Submitted via: audiograbber 1.81.03
#
DISCID=7f0a4b0a
DTITLE=Tim Wheeler and The Soul Shufflers - Stratisfier
DYEAR=2001
DGENRE=Blues
TTITLE0=Stratisfier
TTITLE1=Good Looking Stranger
TTITLE2=Mindbender
TTITLE3=Guitar String Blues
TTITLE4=She Caught The Katy
TTITLE5=She's So Strong
TTITLE6=Necessary To Go
TTITLE7=Automatic
TTITLE8=Give Me Back My Wig
TTITLE9=Primed
EXTD=
EXTT0=
EXTT1=
EXTT2=
EXTT3=
EXTT4=
EXTT5=
EXTT6=
EXTT7=
EXTT8=
EXTT9=
PLAYORDER=
